<mxfile host="65bd71144e" modified="2021-02-10T08:38:17.608Z" agent="5.0 (Windows NT 10.0; Win64; x64) AppleWebKit/537.36 (KHTML, like Gecko) Code/1.53.0 Chrome/87.0.4280.141 Electron/11.2.1 Safari/537.36" etag="bScGMfDAHwYjFmzGNcNf" version="14.2.4" type="embed">
    <diagram id="lKSi9-FvbJ-JLmPUjSAa" name="Page-1">
        <mxGraphModel dx="1148" dy="717" grid="1" gridSize="10" guides="1" tooltips="1" connect="1" arrows="1" fold="1" page="1" pageScale="1" pageWidth="1100" pageHeight="850" math="0" shadow="0">
            <root>
                <mxCell id="0"/>
                <mxCell id="1" parent="0"/>
                <mxCell id="967qhTY7ptsIHKk4yoyH-10" style="edgeStyle=orthogonalEdgeStyle;rounded=0;orthogonalLoop=1;jettySize=auto;html=1;entryX=0.5;entryY=0;entryDx=0;entryDy=0;" parent="1" source="967qhTY7ptsIHKk4yoyH-1" target="967qhTY7ptsIHKk4yoyH-3" edge="1">
                    <mxGeometry relative="1" as="geometry"/>
                </mxCell>
                <mxCell id="967qhTY7ptsIHKk4yoyH-1" value="Start" style="rounded=1;whiteSpace=wrap;html=1;" parent="1" vertex="1">
                    <mxGeometry x="392.5" y="270" width="70" height="30" as="geometry"/>
                </mxCell>
                <mxCell id="967qhTY7ptsIHKk4yoyH-2" value="Ende" style="rounded=1;whiteSpace=wrap;html=1;" parent="1" vertex="1">
                    <mxGeometry x="392.5" y="570" width="70" height="30" as="geometry"/>
                </mxCell>
                <mxCell id="967qhTY7ptsIHKk4yoyH-12" style="edgeStyle=orthogonalEdgeStyle;rounded=0;orthogonalLoop=1;jettySize=auto;html=1;entryX=0.5;entryY=0;entryDx=0;entryDy=0;" parent="1" source="967qhTY7ptsIHKk4yoyH-3" target="967qhTY7ptsIHKk4yoyH-6" edge="1">
                    <mxGeometry relative="1" as="geometry">
                        <mxPoint x="427.5" y="420" as="targetPoint"/>
                    </mxGeometry>
                </mxCell>
                <mxCell id="967qhTY7ptsIHKk4yoyH-3" value="Initialisierung" style="rounded=0;whiteSpace=wrap;html=1;" parent="1" vertex="1">
                    <mxGeometry x="382.5" y="330" width="90" height="40" as="geometry"/>
                </mxCell>
                <mxCell id="967qhTY7ptsIHKk4yoyH-17" style="edgeStyle=orthogonalEdgeStyle;rounded=0;orthogonalLoop=1;jettySize=auto;html=1;entryX=0;entryY=0.5;entryDx=0;entryDy=0;" parent="1" source="967qhTY7ptsIHKk4yoyH-6" target="967qhTY7ptsIHKk4yoyH-7" edge="1">
                    <mxGeometry relative="1" as="geometry"/>
                </mxCell>
                <mxCell id="967qhTY7ptsIHKk4yoyH-18" value="ja" style="edgeLabel;html=1;align=center;verticalAlign=middle;resizable=0;points=[];" parent="967qhTY7ptsIHKk4yoyH-17" vertex="1" connectable="0">
                    <mxGeometry x="-0.2514" y="1" relative="1" as="geometry">
                        <mxPoint as="offset"/>
                    </mxGeometry>
                </mxCell>
                <mxCell id="967qhTY7ptsIHKk4yoyH-19" style="edgeStyle=orthogonalEdgeStyle;rounded=0;orthogonalLoop=1;jettySize=auto;html=1;entryX=0.5;entryY=0;entryDx=0;entryDy=0;" parent="1" source="967qhTY7ptsIHKk4yoyH-6" target="967qhTY7ptsIHKk4yoyH-2" edge="1">
                    <mxGeometry relative="1" as="geometry"/>
                </mxCell>
                <mxCell id="967qhTY7ptsIHKk4yoyH-20" value="nein" style="edgeLabel;html=1;align=center;verticalAlign=middle;resizable=0;points=[];" parent="967qhTY7ptsIHKk4yoyH-19" vertex="1" connectable="0">
                    <mxGeometry x="-0.2452" y="2" relative="1" as="geometry">
                        <mxPoint as="offset"/>
                    </mxGeometry>
                </mxCell>
                <mxCell id="967qhTY7ptsIHKk4yoyH-6" value="Aktion (nochmal)&lt;br&gt;tracken?&lt;br&gt;" style="rhombus;whiteSpace=wrap;html=1;" parent="1" vertex="1">
                    <mxGeometry x="385" y="440" width="85" height="90" as="geometry"/>
                </mxCell>
                <mxCell id="967qhTY7ptsIHKk4yoyH-22" style="edgeStyle=orthogonalEdgeStyle;rounded=0;orthogonalLoop=1;jettySize=auto;html=1;entryX=0.5;entryY=1;entryDx=0;entryDy=0;" parent="1" source="967qhTY7ptsIHKk4yoyH-7" target="967qhTY7ptsIHKk4yoyH-8" edge="1">
                    <mxGeometry relative="1" as="geometry"/>
                </mxCell>
                <mxCell id="967qhTY7ptsIHKk4yoyH-7" value="Laufzeit der Aktion fÃ¼r Array und Liste tracken" style="rounded=0;whiteSpace=wrap;html=1;" parent="1" vertex="1">
                    <mxGeometry x="520" y="460" width="130" height="50" as="geometry"/>
                </mxCell>
                <mxCell id="967qhTY7ptsIHKk4yoyH-13" style="edgeStyle=orthogonalEdgeStyle;rounded=0;orthogonalLoop=1;jettySize=auto;html=1;" parent="1" source="967qhTY7ptsIHKk4yoyH-8" edge="1">
                    <mxGeometry relative="1" as="geometry">
                        <mxPoint x="430" y="415" as="targetPoint"/>
                    </mxGeometry>
                </mxCell>
                <mxCell id="967qhTY7ptsIHKk4yoyH-8" value="Getrackte Laufzeiten und belegten Speicher&amp;nbsp;&lt;br&gt;in Datei speichern" style="rounded=0;whiteSpace=wrap;html=1;" parent="1" vertex="1">
                    <mxGeometry x="520" y="390" width="130" height="50" as="geometry"/>
                </mxCell>
            </root>
        </mxGraphModel>
    </diagram>
</mxfile>